<?xml version="1.0" standalone="no"?>
<!DOCTYPE svg PUBLIC "-//W3C//DTD SVG 20010904//EN"
 "http://www.w3.org/TR/2001/REC-SVG-20010904/DTD/svg10.dtd">
<svg version="1.0" xmlns="http://www.w3.org/2000/svg"
 width="1191.000000pt" height="1191.000000pt" viewBox="0 0 1191.000000 1191.000000"
 preserveAspectRatio="xMidYMid meet">
<metadata>
Created by potrace 1.11, written by Peter Selinger 2001-2013
</metadata>
<g transform="translate(0.000000,1191.000000) scale(0.100000,-0.100000)"
fill="#000000" stroke="none">
<path d="M5639 11906 c-2 -2 -51 -6 -109 -10 -58 -4 -118 -9 -135 -11 -16 -2
-61 -6 -100 -10 -38 -3 -77 -8 -85 -10 -8 -2 -40 -6 -70 -10 -54 -5 -89 -10
-140 -20 -14 -3 -43 -7 -65 -11 -22 -3 -47 -7 -55 -9 -8 -2 -31 -7 -50 -10
-330 -56 -815 -203 -1192 -361 -153 -64 -440 -203 -502 -241 -22 -15 -43 -26
-46 -27 -27 -1 -603 -362 -630 -395 -3 -3 -48 -38 -100 -77 -109 -81 -258
-203 -375 -307 -144 -128 -434 -424 -555 -567 -12 -14 -30 -35 -40 -47 -106
-123 -309 -396 -411 -553 -103 -158 -126 -195 -187 -301 -296 -514 -501 -1038
-648 -1658 -19 -83 -39 -183 -49 -246 -3 -19 -9 -49 -19 -105 -5 -24 -7 -37
-21 -145 -4 -27 -8 -60 -10 -73 -2 -13 -7 -53 -10 -90 -4 -37 -8 -77 -10 -90
-27 -170 -27 -879 0 -1132 2 -19 6 -62 10 -95 3 -33 8 -71 10 -85 2 -14 6 -47
10 -75 3 -27 15 -104 26 -170 12 -66 23 -133 25 -150 3 -16 7 -36 10 -44 4
-11 25 -112 39 -183 30 -149 155 -552 242 -778 92 -240 286 -650 368 -780 14
-22 25 -44 25 -50 0 -5 5 -10 10 -10 6 0 10 -4 10 -10 0 -13 121 -213 150
-247 5 -7 10 -14 10 -17 0 -6 100 -153 144 -212 17 -23 40 -55 51 -70 73 -103
255 -323 390 -473 81 -90 313 -320 415 -412 752 -676 1656 -1149 2631 -1374
146 -34 144 -34 238 -50 19 -3 37 -7 40 -9 3 -2 33 -7 66 -11 32 -3 62 -8 65
-10 3 -2 29 -6 59 -10 30 -4 62 -8 71 -10 23 -4 104 -14 170 -20 30 -3 71 -7
90 -10 215 -28 826 -27 1110 0 106 11 148 15 180 20 19 2 55 7 80 10 25 3 52
7 60 10 8 2 40 7 70 10 148 18 552 109 750 170 47 15 90 28 95 29 81 19 440
154 625 235 95 42 394 190 460 228 207 119 198 114 332 200 109 69 333 226
412 288 124 98 206 164 236 190 370 324 634 604 899 954 179 237 312 443 471
726 37 65 156 303 199 397 128 279 308 793 347 992 2 10 10 42 18 70 12 42 25
100 42 181 15 77 34 179 40 215 3 25 8 54 10 65 2 11 6 38 9 60 3 22 7 49 9
61 2 12 7 43 10 70 35 297 40 396 40 754 0 286 -4 423 -19 550 -2 19 -7 64
-11 100 -3 36 -7 72 -9 80 -1 8 -6 42 -9 75 -4 33 -13 96 -21 140 -8 44 -17
96 -20 115 -7 46 -44 226 -55 270 -5 19 -11 46 -14 60 -9 51 -66 258 -91 335
-15 44 -28 87 -30 95 -9 43 -114 328 -169 462 -74 179 -245 530 -302 620 -13
21 -24 40 -24 42 0 9 -157 263 -231 373 -249 372 -572 747 -929 1078 -87 81
-335 287 -435 361 -44 32 -82 61 -85 64 -5 6 -114 80 -250 170 -432 287 -998
550 -1525 709 -92 28 -313 87 -360 97 -11 2 -51 11 -90 19 -107 24 -284 57
-375 70 -25 4 -56 8 -70 10 -14 2 -52 7 -85 11 -33 3 -67 8 -76 9 -8 2 -55 6
-105 10 -49 4 -100 9 -114 12 -27 5 -755 14 -761 9z"/>
</g>
</svg>
